<svg width="163" height="49" viewBox="0 0 163 49" fill="none" xmlns="http://www.w3.org/2000/svg">
    <mask id="path-1-inside-1_1_790" fill="white">
        <path fill-rule="evenodd" clip-rule="evenodd"
            d="M0.763961 37.6087C-1.71886 42.9133 2.15269 49 8.00958 49H138.795C141.9 49 144.724 47.2034 146.04 44.3913L161.486 11.3913C163.969 6.0867 160.097 0 154.24 0H23.4552C20.3503 0 17.5258 1.79656 16.2096 4.60869L0.763961 37.6087Z" />
    </mask>
    <path
        d="M16.2096 4.60869L15.3039 4.18478L16.2096 4.60869ZM161.486 11.3913L160.58 10.9674L161.486 11.3913ZM146.04 44.3913L145.135 43.9674L146.04 44.3913ZM0.763961 37.6087L-0.141742 37.1848L0.763961 37.6087ZM8.00958 50H138.795V48H8.00958V50ZM146.946 44.8152L162.392 11.8152L160.58 10.9674L145.135 43.9674L146.946 44.8152ZM154.24 -1H23.4552V1H154.24V-1ZM15.3039 4.18478L-0.141742 37.1848L1.66966 38.0326L17.1153 5.0326L15.3039 4.18478ZM23.4552 -1C19.9622 -1 16.7846 1.02113 15.3039 4.18478L17.1153 5.0326C18.267 2.57199 20.7384 1 23.4552 1V-1ZM162.392 11.8152C165.185 5.84754 160.829 -1 154.24 -1V1C159.365 1 162.753 6.32586 160.58 10.9674L162.392 11.8152ZM138.795 50C142.288 50 145.465 47.9789 146.946 44.8152L145.135 43.9674C143.983 46.428 141.512 48 138.795 48V50ZM8.00958 48C2.8848 48 -0.502802 42.6741 1.66966 38.0326L-0.141742 37.1848C-2.93491 43.1525 1.42058 50 8.00958 50V48Z"
        fill="#D9D9D9" mask="url(#path-1-inside-1_1_790)" />
    <path
        d="M29.168 30.5V19.3H36.08V20.868H30.896V24.1H35.664V25.668H30.896V30.5H29.168ZM37.8098 30.5V22.612H39.4578V30.5H37.8098ZM38.6418 21.54C38.3218 21.54 38.0498 21.4387 37.8258 21.236C37.6124 21.0227 37.5058 20.7507 37.5058 20.42C37.5058 20.0893 37.6124 19.8227 37.8258 19.62C38.0498 19.4067 38.3218 19.3 38.6418 19.3C38.9724 19.3 39.2444 19.4067 39.4578 19.62C39.6711 19.8227 39.7778 20.0893 39.7778 20.42C39.7778 20.7507 39.6711 21.0227 39.4578 21.236C39.2444 21.4387 38.9724 21.54 38.6418 21.54ZM41.9035 30.5V22.612H43.5195V23.796H43.7755C43.9248 23.476 44.1915 23.1773 44.5755 22.9C44.9595 22.6227 45.5302 22.484 46.2875 22.484C46.8848 22.484 47.4128 22.6173 47.8715 22.884C48.3408 23.1507 48.7088 23.5293 48.9755 24.02C49.2422 24.5 49.3755 25.0813 49.3755 25.764V30.5H47.7275V25.892C47.7275 25.2093 47.5568 24.708 47.2155 24.388C46.8742 24.0573 46.4048 23.892 45.8075 23.892C45.1248 23.892 44.5755 24.116 44.1595 24.564C43.7542 25.012 43.5515 25.6627 43.5515 26.516V30.5H41.9035ZM55.0113 30.724C54.3606 30.724 53.7579 30.564 53.2033 30.244C52.6486 29.924 52.2006 29.4653 51.8593 28.868C51.5286 28.26 51.3633 27.5293 51.3633 26.676V26.436C51.3633 25.5933 51.5286 24.868 51.8593 24.26C52.1899 23.652 52.6326 23.188 53.1873 22.868C53.7419 22.548 54.3499 22.388 55.0113 22.388C55.5233 22.388 55.9499 22.452 56.2913 22.58C56.6433 22.708 56.9313 22.8733 57.1553 23.076C57.3793 23.268 57.5499 23.4707 57.6673 23.684H57.9233V19.3H59.5712V30.5H57.9553V29.38H57.6993C57.4966 29.7213 57.1873 30.0307 56.7713 30.308C56.3659 30.5853 55.7793 30.724 55.0113 30.724ZM55.4753 29.284C56.1899 29.284 56.7766 29.0547 57.2353 28.596C57.7046 28.1373 57.9393 27.4813 57.9393 26.628V26.484C57.9393 25.6413 57.7099 24.9907 57.2513 24.532C56.7926 24.0733 56.2006 23.844 55.4753 23.844C54.7713 23.844 54.1846 24.0733 53.7153 24.532C53.2566 24.9907 53.0273 25.6413 53.0273 26.484V26.628C53.0273 27.4813 53.2566 28.1373 53.7153 28.596C54.1846 29.0547 54.7713 29.284 55.4753 29.284ZM69.7714 30.724C68.982 30.724 68.278 30.564 67.6594 30.244C67.0514 29.9133 66.5714 29.444 66.2194 28.836C65.8674 28.228 65.6914 27.508 65.6914 26.676V26.436C65.6914 25.604 65.8674 24.8893 66.2194 24.292C66.5714 23.684 67.0514 23.2147 67.6594 22.884C68.278 22.5533 68.982 22.388 69.7714 22.388C70.5607 22.388 71.2647 22.5533 71.8834 22.884C72.502 23.2147 72.9874 23.684 73.3394 24.292C73.6914 24.8893 73.8674 25.604 73.8674 26.436V26.676C73.8674 27.508 73.6914 28.228 73.3394 28.836C72.9874 29.444 72.502 29.9133 71.8834 30.244C71.2647 30.564 70.5607 30.724 69.7714 30.724ZM69.7714 29.252C70.4967 29.252 71.0834 29.0227 71.5314 28.564C71.99 28.0947 72.2194 27.4493 72.2194 26.628V26.484C72.2194 25.6627 71.9954 25.0227 71.5474 24.564C71.0994 24.0947 70.5074 23.86 69.7714 23.86C69.0567 23.86 68.47 24.0947 68.0114 24.564C67.5634 25.0227 67.3394 25.6627 67.3394 26.484V26.628C67.3394 27.4493 67.5634 28.0947 68.0114 28.564C68.47 29.0227 69.0567 29.252 69.7714 29.252ZM78.9431 30.644C78.3458 30.644 77.8125 30.5107 77.3431 30.244C76.8738 29.9773 76.5058 29.5987 76.2391 29.108C75.9725 28.6173 75.8391 28.0307 75.8391 27.348V22.612H77.4871V27.236C77.4871 27.9187 77.6578 28.4253 77.9991 28.756C78.3405 29.076 78.8151 29.236 79.4231 29.236C80.0951 29.236 80.6338 29.012 81.0391 28.564C81.4551 28.1053 81.6631 27.4493 81.6631 26.596V22.612H83.3111V30.5H81.6951V29.316H81.4391C81.2898 29.636 81.0231 29.94 80.6391 30.228C80.2551 30.5053 79.6898 30.644 78.9431 30.644ZM88.7073 30.5C88.2273 30.5 87.8433 30.356 87.5553 30.068C87.2779 29.78 87.1393 29.396 87.1393 28.916V24.004H84.9633V22.612H87.1393V20.004H88.7873V22.612H91.1393V24.004H88.7873V28.628C88.7873 28.948 88.9366 29.108 89.2352 29.108H90.8833V30.5H88.7073ZM97.1535 30.5V22.612H98.7695V23.54H99.0255C99.1748 23.2627 99.4148 23.0173 99.7455 22.804C100.076 22.5907 100.524 22.484 101.09 22.484C101.676 22.484 102.146 22.6067 102.498 22.852C102.86 23.0867 103.132 23.3907 103.314 23.764H103.57C103.751 23.4013 104.012 23.0973 104.354 22.852C104.706 22.6067 105.202 22.484 105.842 22.484C106.354 22.484 106.807 22.5907 107.202 22.804C107.596 23.0067 107.911 23.316 108.146 23.732C108.38 24.1373 108.498 24.644 108.498 25.252V30.5H106.85V25.38C106.85 24.9 106.716 24.532 106.45 24.276C106.194 24.0093 105.826 23.876 105.345 23.876C104.834 23.876 104.423 24.0413 104.114 24.372C103.804 24.7027 103.65 25.1773 103.65 25.796V30.5H102.002V25.38C102.002 24.9 101.868 24.532 101.602 24.276C101.346 24.0093 100.978 23.876 100.498 23.876C99.9855 23.876 99.5748 24.0413 99.2655 24.372C98.9562 24.7027 98.8015 25.1773 98.8015 25.796V30.5H97.1535ZM114.568 30.724C113.779 30.724 113.075 30.564 112.456 30.244C111.848 29.9133 111.368 29.444 111.016 28.836C110.664 28.228 110.488 27.508 110.488 26.676V26.436C110.488 25.604 110.664 24.8893 111.016 24.292C111.368 23.684 111.848 23.2147 112.456 22.884C113.075 22.5533 113.779 22.388 114.568 22.388C115.358 22.388 116.062 22.5533 116.68 22.884C117.299 23.2147 117.784 23.684 118.136 24.292C118.488 24.8893 118.664 25.604 118.664 26.436V26.676C118.664 27.508 118.488 28.228 118.136 28.836C117.784 29.444 117.299 29.9133 116.68 30.244C116.062 30.564 115.358 30.724 114.568 30.724ZM114.568 29.252C115.294 29.252 115.88 29.0227 116.328 28.564C116.787 28.0947 117.016 27.4493 117.016 26.628V26.484C117.016 25.6627 116.792 25.0227 116.344 24.564C115.896 24.0947 115.304 23.86 114.568 23.86C113.854 23.86 113.267 24.0947 112.808 24.564C112.36 25.0227 112.136 25.6627 112.136 26.484V26.628C112.136 27.4493 112.36 28.0947 112.808 28.564C113.267 29.0227 113.854 29.252 114.568 29.252ZM120.716 30.5V22.612H122.332V23.54H122.588C122.716 23.2093 122.919 22.9693 123.196 22.82C123.484 22.66 123.836 22.58 124.252 22.58H125.196V24.068H124.188C123.655 24.068 123.217 24.2173 122.876 24.516C122.535 24.804 122.364 25.252 122.364 25.86V30.5H120.716ZM130.238 30.724C129.438 30.724 128.74 30.5587 128.142 30.228C127.545 29.8867 127.076 29.412 126.734 28.804C126.404 28.1853 126.238 27.4707 126.238 26.66V26.468C126.238 25.6467 126.404 24.932 126.734 24.324C127.065 23.7053 127.524 23.2307 128.11 22.9C128.708 22.5587 129.396 22.388 130.174 22.388C130.932 22.388 131.593 22.5587 132.158 22.9C132.734 23.2307 133.182 23.6947 133.502 24.292C133.822 24.8893 133.982 25.588 133.982 26.388V27.012H127.918C127.94 27.7053 128.169 28.26 128.606 28.676C129.054 29.0813 129.609 29.284 130.27 29.284C130.889 29.284 131.353 29.1453 131.662 28.868C131.982 28.5907 132.228 28.2707 132.398 27.908L133.758 28.612C133.609 28.9107 133.39 29.2253 133.102 29.556C132.825 29.8867 132.457 30.164 131.998 30.388C131.54 30.612 130.953 30.724 130.238 30.724ZM127.934 25.748H132.302C132.26 25.1507 132.046 24.6867 131.662 24.356C131.278 24.0147 130.777 23.844 130.158 23.844C129.54 23.844 129.033 24.0147 128.638 24.356C128.254 24.6867 128.02 25.1507 127.934 25.748Z"
        fill="#D9D9D9" />
</svg>