<svg width="32" height="32" viewBox="0 0 32 32" fill="none" xmlns="http://www.w3.org/2000/svg">
    <path fill-rule="evenodd" clip-rule="evenodd"
        d="M11.3454 14.6666C10.5632 14.6666 10.4 14.8202 10.4 15.5555V16.8889C10.4 17.6243 10.5632 17.7778 11.3454 17.7778H13.2364V23.1111C13.2364 23.8465 13.3996 24 14.1818 24H16.0727C16.855 24 17.0182 23.8465 17.0182 23.1111V17.7778H19.1414C19.7346 17.7778 19.8875 17.6694 20.0505 17.1331L20.4557 15.7998C20.7348 14.8811 20.5628 14.6666 19.5466 14.6666H17.0182V12.4444C17.0182 11.9535 17.4414 11.5556 17.9636 11.5556H20.6546C21.4367 11.5556 21.6 11.4021 21.6 10.6667V8.88889C21.6 8.15348 21.4367 8 20.6546 8H17.9636C15.3528 8 13.2364 9.98985 13.2364 12.4444V14.6666H11.3454Z"
        stroke="white" stroke-width="1.5" stroke-linejoin="round" />
</svg>