<svg width="32" height="32" viewBox="0 0 32 32" fill="none" xmlns="http://www.w3.org/2000/svg">
    <path d="M9.33333 12L13.942 14.6113C15.6411 15.574 16.3589 15.574 18.058 14.6113L22.6667 12"
        stroke="white" stroke-width="1.5" stroke-linejoin="round" />
    <path
        d="M9.34384 16.9837C9.38742 19.0274 9.40921 20.0492 10.1633 20.8062C10.9174 21.5631 11.9669 21.5895 14.0659 21.6422C15.3595 21.6747 16.6405 21.6747 17.9341 21.6422C20.0331 21.5895 21.0826 21.5631 21.8367 20.8062C22.5908 20.0492 22.6126 19.0274 22.6561 16.9837C22.6702 16.3265 22.6702 15.6733 22.6561 15.0162C22.6126 12.9725 22.5908 11.9506 21.8367 11.1937C21.0826 10.4367 20.0331 10.4104 17.9341 10.3576C16.6405 10.3251 15.3595 10.3251 14.0659 10.3576C11.9669 10.4104 10.9174 10.4367 10.1633 11.1937C9.40921 11.9506 9.38742 12.9725 9.34383 15.0162C9.32982 15.6733 9.32983 16.3265 9.34384 16.9837Z"
        stroke="white" stroke-width="1.5" stroke-linejoin="round" />
</svg>