<svg width="32" height="32" viewBox="0 0 32 32" fill="none" xmlns="http://www.w3.org/2000/svg">
    <path
        d="M14.1055 11.8082L13.8371 11.2042C13.6616 10.8093 13.5738 10.6118 13.4425 10.4607C13.2781 10.2713 13.0637 10.132 12.8238 10.0586C12.6324 10 12.4163 10 11.9841 10C11.3519 10 11.0358 10 10.7705 10.1215C10.4579 10.2647 10.1756 10.5755 10.0632 10.9004C9.96767 11.1762 9.99502 11.4596 10.0497 12.0265C10.6319 18.0601 13.9399 21.3681 19.9735 21.9503C20.5404 22.005 20.8239 22.0323 21.0996 21.9369C21.4245 21.8244 21.7353 21.5421 21.8785 21.2295C22 20.9641 22 20.6481 22 20.0159C22 19.5837 22 19.3676 21.9415 19.1762C21.8681 18.9363 21.7287 18.7219 21.5393 18.5575C21.3883 18.4262 21.1908 18.3385 20.7959 18.1629L20.1919 17.8945C19.7642 17.7044 19.5503 17.6094 19.3331 17.5887C19.1251 17.5689 18.9154 17.5981 18.7207 17.6739C18.5173 17.7531 18.3376 17.9029 17.978 18.2025C17.6201 18.5008 17.4412 18.6499 17.2225 18.7298C17.0287 18.8006 16.7724 18.8269 16.5683 18.7967C16.3379 18.7628 16.1616 18.6686 15.8089 18.4801C14.7115 17.8937 14.1064 17.2885 13.5199 16.1911C13.3314 15.8385 13.2372 15.6621 13.2033 15.4318C13.1732 15.2276 13.1994 14.9713 13.2702 14.7775C13.3501 14.5588 13.4992 14.3799 13.7975 14.022C14.0971 13.6624 14.2469 13.4827 14.3261 13.2793C14.4019 13.0846 14.4311 12.8749 14.4113 12.667C14.3906 12.4497 14.2956 12.2358 14.1055 11.8082Z"
        stroke="white" stroke-width="1.5" stroke-linecap="round" />
</svg>